<svg xmlns="http://www.w3.org/2000/svg" viewBox="0 0 500 160">
  <title>logo_20150629</title>
  <g>
    <g>
      <polygon points="86.32 55.345 109.188 44.067 86.215 34.043 63.243 43.963 86.32 55.345" fill="#0fd15d"/>
      <polygon points="62.825 86.253 61.677 67.666 78.384 59.313 54.785 47.618 39.54 54.301 41.524 72.156 62.825 86.253" fill="#0fd15d"/>
      <polygon points="130.907 72.052 133.1 54.301 117.646 47.618 94.256 59.313 111.172 67.666 109.814 86.253 130.907 72.052" fill="#0fd15d"/>
      <polygon points="109.188 95.128 107.517 119.354 126.939 104.735 129.863 81.241 109.188 95.128" fill="#0fd15d"/>
      <polygon points="63.348 95.128 42.673 81.241 45.387 104.839 64.914 119.354 63.348 95.128" fill="#0fd15d"/>
      <polygon points="101.878 100.036 86.424 110.478 70.761 100.036 72.328 124.888 86.32 135.33 100.103 124.888 101.878 100.036" fill="#0fd15d"/>
    </g>
    <g>
      <g>
        <path d="M158.869,107.027V53.409h19.685c10.953,0,17.77,6.741,17.77,17.464v18.69c0,10.647-6.817,17.464-17.77,17.464H158.869Zm10.264-9.115h9.421c4.826,0,7.43-3.14,7.43-9.268V71.793c0-6.128-2.6-9.268-7.43-9.268h-9.421V97.912Z" fill="#0f1011"/>
        <path d="M244.058,82.592c0-10.034,6.358-16.162,16.7-16.162,10.264,0,16.621,6.128,16.621,16.162v9.038c0.077,10.034-6.357,16.162-16.621,16.162-10.34,0-16.7-6.128-16.7-16.162V82.592Zm9.8,8.2c0,5.592,2.451,8.5,6.894,8.5,4.366,0,6.817-2.911,6.817-8.5V83.435c0-5.591-2.451-8.5-6.817-8.5-4.442,0-6.817,2.911-6.817,8.5Z" fill="#0f1011"/>
        <path d="M235.971,107.025h-8.428L227,103.2c-2.341,2.654-6.622,4.6-11.315,4.6-7.643,0-13.344-5.445-13.344-11.956,0-16.937,23.433-17.071,23.433-17.071,0-1.306-1.857-5.313-10.295-5.313a25.011,25.011,0,0,0-7.287,1.341l-1.9-5.259a32.316,32.316,0,0,1,13.252-3.125c10.37,0,16.432,4.328,16.432,14.227v26.376Zm-18.231-6.913a10.341,10.341,0,0,0,8.242-4.558l0.041-10.863c-1.6,0-13.657,1.033-13.657,10.2A5.045,5.045,0,0,0,217.74,100.112Z" fill="#0f1011"/>
      </g>
      <path d="M303.387,108.084c-10.632,0-18.4-6.711-18.4-17.268V70.38c0-10.556,7.766-17.192,18.4-17.192,6.711,0,10.708,1.885,15.232,5.052L314.7,65.328c-3.846-2.111-6.335-3.317-11.311-3.317s-8.219,3.544-8.219,9.275V89.91c0,5.958,3.317,9.275,8.219,9.275,4.977,0,7.465-1.206,11.311-3.317l3.921,7.163C314.1,106.2,310.1,108.084,303.387,108.084Z" fill="#0f1011"/>
      <path d="M325.106,107.028V50.473h9.652v56.555h-9.652Z" fill="#0f1011"/>
      <path d="M343.2,82.973c0-9.878,6.259-15.911,16.438-15.911,10.1,0,16.363,6.032,16.363,15.911v8.9c0.075,9.878-6.259,15.911-16.363,15.911-10.179,0-16.438-6.032-16.438-15.911v-8.9Zm9.652,8.069c0,5.5,2.413,8.37,6.786,8.37,4.3,0,6.711-2.866,6.711-8.37V83.8c0-5.5-2.413-8.371-6.711-8.371-4.373,0-6.711,2.866-6.711,8.371Z" fill="#0f1011"/>
      <path d="M396.215,107.781c-8.973,0-11.913-5.429-11.913-15.382V67.817h9.652V91.494c0,5.581,1.131,7.994,4.9,7.994a8.445,8.445,0,0,0,7.315-4.449V67.817H415.9v39.211h-8.445l-0.754-3.7A16.429,16.429,0,0,1,396.215,107.781Z" fill="#0f1011"/>
      <path d="M448.474,103.709a15.541,15.541,0,0,1-10.632,4.072c-8.822,0-13.422-6.032-13.422-15.911V82.294c0-9.954,4.448-15.232,13.12-15.232a23.731,23.731,0,0,1,9.577,1.81v-18.4h9.727v56.555h-7.917Zm-1.357-26.543a17.093,17.093,0,0,0-7.39-1.508c-3.694,0-5.73,2.262-5.73,7.39v7.994c0,5.5,1.509,8.37,5.882,8.37a7.785,7.785,0,0,0,7.239-4V77.166Z" fill="#0f1011"/>
    </g>
  </g>
</svg>
